
        <svg xmlns="http://www.w3.org/2000/svg" width="750" height="1334" viewBox="-375 -667 750 1334">
          <defs>
            <pattern id="bg" width="36" height="36" patternUnits="userSpaceOnUse" patternTransform="rotate(22.5)">
              <path d="
  M 6 0
  l 4 4
  l 16 0
  l 4 -4
  l 6 6
  l -4 4
  l 0 16
  l 4 4
  l -6 6
  l -4 -4
  l -16 0
  l -4 4
  l -6 -6
  l 4 -4
  l 0 -16
  l -4 -4
  z
  " stroke="#293845" stroke-width="1" fill="none"/>
            </pattern>
            <pattern id="bg-large" width="360" height="360" patternUnits="userSpaceOnUse" patternTransform="rotate(-22.5)">
              <path d="
  M 60 0
  l 40 40
  l 160 0
  l 40 -40
  l 60 60
  l -40 40
  l 0 160
  l 40 40
  l -60 60
  l -40 -40
  l -160 0
  l -40 40
  l -60 -60
  l 40 -40
  l 0 -160
  l -40 -40
  z
  " stroke="#3F4F5B" stroke-width="2" fill="none"/>
            </pattern>
            <radialGradient id="accent-bg">
              <stop offset="25%" stop-color="#13222E"/>
              <stop offset="100%" stop-color="#13222E" stop-opacity="0"/>
            </radialGradient>
            <linearGradient id="fill-0" x1="0" y1="0" x2="1" y2="1"><stop offset="25%" stop-color="#CA3E5A" stop-opacity="0"/><stop offset="90%" stop-color="#CA3E5A"/></linearGradient>
<linearGradient id="fill-1" x1="0" y1="0" x2="1" y2="1"><stop offset="25%" stop-color="#D8843E" stop-opacity="0"/><stop offset="90%" stop-color="#D8843E"/></linearGradient>
<linearGradient id="fill-2" x1="0" y1="0" x2="1" y2="1"><stop offset="25%" stop-color="#EBB062" stop-opacity="0"/><stop offset="90%" stop-color="#EBB062"/></linearGradient>
<linearGradient id="fill-3" x1="0" y1="0" x2="1" y2="1"><stop offset="25%" stop-color="#81A559" stop-opacity="0"/><stop offset="90%" stop-color="#81A559"/></linearGradient>
<linearGradient id="fill-4" x1="0" y1="0" x2="1" y2="1"><stop offset="25%" stop-color="#42ABAB" stop-opacity="0"/><stop offset="90%" stop-color="#42ABAB"/></linearGradient>
<linearGradient id="fill-5" x1="0" y1="0" x2="1" y2="1"><stop offset="25%" stop-color="#4496CD" stop-opacity="0"/><stop offset="90%" stop-color="#4496CD"/></linearGradient>
<linearGradient id="fill-6" x1="0" y1="0" x2="1" y2="1"><stop offset="25%" stop-color="#9770B2" stop-opacity="0"/><stop offset="90%" stop-color="#9770B2"/></linearGradient>
<linearGradient id="fill-7" x1="0" y1="0" x2="1" y2="1"><stop offset="25%" stop-color="#B35D8D" stop-opacity="0"/><stop offset="90%" stop-color="#B35D8D"/></linearGradient>
          </defs>
          <rect x="-375" y="-667" width="750" height="1334" fill="#13222E" />
          <rect x="-375" y="-667" width="750" height="1334" fill="url(#bg)"/>
          <rect x="-375" y="-667" width="750" height="1334" fill="url(#bg-large)"/>
          <circle r="1200" fill="url(#accent-bg)"/>
          <path d="M 0 -300 L 212.13 -212.13 L 212.13 212.13 Z" stroke="#CA3E5A" stroke-width="0" fill="url(#fill-0)" transform="rotate(0)"/>
<path d="M 0 -300 L 212.13 -212.13 L 212.13 212.13 Z" stroke="#D8843E" stroke-width="0" fill="url(#fill-1)" transform="rotate(-45)"/>
<path d="M 0 -300 L 212.13 -212.13 L 212.13 212.13 Z" stroke="#EBB062" stroke-width="0" fill="url(#fill-2)" transform="rotate(-90)"/>
<path d="M 0 -300 L 212.13 -212.13 L 212.13 212.13 Z" stroke="#81A559" stroke-width="0" fill="url(#fill-3)" transform="rotate(-135)"/>
<path d="M 0 -300 L 212.13 -212.13 L 212.13 212.13 Z" stroke="#42ABAB" stroke-width="0" fill="url(#fill-4)" transform="rotate(-180)"/>
<path d="M 0 -300 L 212.13 -212.13 L 212.13 212.13 Z" stroke="#4496CD" stroke-width="0" fill="url(#fill-5)" transform="rotate(-225)"/>
<path d="M 0 -300 L 212.13 -212.13 L 212.13 212.13 Z" stroke="#9770B2" stroke-width="0" fill="url(#fill-6)" transform="rotate(-270)"/>
<path d="M 0 -300 L 212.13 -212.13 L 212.13 212.13 Z" stroke="#B35D8D" stroke-width="0" fill="url(#fill-7)" transform="rotate(-315)"/>
        </svg>